<svg xmlns="http://www.w3.org/2000/svg" xml:space="preserve" width="2000" height="559" viewBox="0 0 2000 559" data-version="1" data-id="lg_5MDLX8CkbRiinfuHYl"><g id="outer-wrapper" data-padding="20" transform="matrix(1,0,0,1,0,0)"><g id="inner-wrapper" transform="matrix(0.9626865671641791,0,0,0.9626865671641791,10,10.42910447761193)"><rect width="536.228" height="559.35" x="359.7580930232557" y="-400.345" fill="none" rx="0" ry="0" transform="translate(400.5 400.17)"></rect><path fill="#fff6f0" d="M938.5920930232558 88.39999999999998V296.49999999999994Q938.5920930232558 325.25999999999993 927.7220930232559 350.5199999999999Q916.8420930232558 375.7799999999999 898.1120930232557 394.50999999999993T854.1220930232557 424.11999999999995Q828.8620930232557 434.98999999999995 800.1020930232557 434.98999999999995Q782.7020930232558 434.98999999999995 765.3020930232558 430.63999999999993V356.19999999999993Q773.0320930232558 360.7899999999999 781.9720930232559 363.2099999999999Q790.9220930232558 365.62999999999994 800.1020930232557 365.62999999999994Q814.3620930232557 365.62999999999994 827.0520930232558 360.18999999999994T849.1620930232558 345.31999999999994Q858.5920930232558 335.8999999999999 864.0320930232558 323.3299999999999T869.4720930232559 296.49999999999994V88.39999999999995ZM1274.7920930232558 263.15999999999997V399.96Q1250.622093023256 420.49999999999994 1220.892093023256 431.49999999999994T1159.0120930232558 442.49999999999994Q1134.362093023256 442.49999999999994 1111.5220930232558 436.09Q1088.682093023256 429.69 1068.862093023256 417.96Q1049.0420930232558 406.23999999999995 1032.602093023256 389.93Q1016.1720930232559 373.61 1004.572093023256 353.67T986.562093023256 310.77000000000004Q980.1620930232559 287.81000000000006 980.1620930232559 263.16Q980.1620930232559 238.5 986.562093023256 215.78000000000003Q992.972093023256 193.06 1004.572093023256 173.12000000000006T1032.602093023256 136.87000000000006Q1049.0420930232558 120.55000000000007 1068.862093023256 108.95000000000005T1111.5220930232558 90.95000000000005Q1134.362093023256 84.54000000000005 1159.0120930232558 84.54000000000005Q1191.162093023256 84.54000000000005 1220.892093023256 95.54000000000005T1274.7920930232558 127.08000000000004L1238.5320930232558 187.50000000000006Q1222.8220930232558 171.55000000000007 1202.2820930232558 162.49000000000007Q1181.7320930232559 153.42000000000007 1159.0120930232558 153.42000000000007T1116.352093023256 162.13000000000005Q1096.412093023256 170.83000000000004 1081.432093023256 185.69000000000005Q1066.442093023256 200.56000000000006 1057.7420930232558 220.50000000000006T1049.0420930232558 263.16Q1049.0420930232558 286.12 1057.7420930232558 306.18T1081.432093023256 341.23Q1096.412093023256 356.21000000000004 1116.352093023256 364.91T1159.0120930232558 373.61Q1172.0720930232558 373.61 1184.392093023256 370.47Q1196.7220930232559 367.33000000000004 1207.842093023256 361.77000000000004V263.16Z "></path></g><rect width="536" height="559" x="732" y="0" id="space-saver" fill="transparent" stroke="transparent"></rect></g></svg>