<svg width="105" height="30" viewBox="0 0 105 30" fill="none" xmlns="http://www.w3.org/2000/svg">
<mask id="mask0_22_42" style="mask-type:luminance" maskUnits="userSpaceOnUse" x="0" y="0" width="105" height="30">
<path d="M0 0H104.229V30H0V0Z" fill="white"/>
</mask>
<g mask="url(#mask0_22_42)">
<mask id="mask1_22_42" style="mask-type:luminance" maskUnits="userSpaceOnUse" x="0" y="0" width="29" height="30">
<path d="M28.714 0H0V29.995H28.714V0Z" fill="white"/>
</mask>
<g mask="url(#mask1_22_42)">
<path d="M1.805 1.28996L18.403 0.0689631C20.441 -0.106037 20.966 0.0119631 22.247 0.941963L27.545 4.66596C28.419 5.30596 28.711 5.48096 28.711 6.17896V26.603C28.711 27.883 28.244 28.64 26.614 28.756L7.34 29.919C6.116 29.977 5.534 29.803 4.893 28.988L0.99 23.925C0.29 22.994 0 22.297 0 21.481V3.32596C0 2.27996 0.466 1.40596 1.805 1.29096V1.28996Z" fill="white"/>
<path fill-rule="evenodd" clip-rule="evenodd" d="M18.403 0.0682307L1.805 1.29123C0.466 1.40623 0 2.28023 0 3.32623V21.4812C0 22.2972 0.29 22.9942 0.99 23.9252L4.892 28.9882C5.532 29.8032 6.115 29.9782 7.339 29.9182L26.614 28.7552C28.244 28.6392 28.711 27.8822 28.711 26.6022V6.17823C28.711 5.51623 28.449 5.32523 27.677 4.76223C27.633 4.72994 27.589 4.6976 27.545 4.66523L22.247 0.941231C20.966 0.0112306 20.44 -0.106769 18.403 0.0682307ZM7.776 5.84323C6.202 5.94923 5.845 5.97323 4.951 5.24723L2.678 3.44323C2.446 3.21023 2.563 2.91923 3.145 2.86223L19.102 1.69823C20.441 1.58123 21.14 2.04823 21.664 2.45423L24.401 4.43323C24.517 4.49123 24.808 4.84023 24.459 4.84023L7.979 5.83023L7.776 5.84323ZM5.94 26.4272V9.08723C5.94 8.33123 6.173 7.98223 6.872 7.92323L25.798 6.81823C26.44 6.76023 26.731 7.16823 26.731 7.92323V25.1462C26.731 25.9042 26.614 26.5442 25.565 26.6022L7.455 27.6502C6.405 27.7082 5.94 27.3602 5.94 26.4272ZM23.82 10.0172C23.936 10.5422 23.82 11.0662 23.294 11.1252L22.422 11.2992V24.0992C21.664 24.5072 20.965 24.7392 20.383 24.7392C19.451 24.7392 19.218 24.4492 18.519 23.5762L12.812 14.6162V23.2862L14.618 23.6932C14.618 23.6932 14.618 24.7402 13.16 24.7402L9.143 24.9732C9.026 24.7402 9.143 24.1582 9.551 24.0422L10.599 23.7522V12.2872L9.143 12.1702C9.027 11.6462 9.317 10.8902 10.133 10.8322L14.443 10.5422L20.383 19.6192V11.5892L18.869 11.4152C18.752 10.7742 19.218 10.3082 19.8 10.2512L23.82 10.0172Z" fill="black"/>
</g>
<path d="M50.9949 7.02003V23.23H48.4079L40.7389 12.14H40.6049V23.23H37.6919V7.02003H40.3039L47.9559 18.107H48.1059V7.02103H50.9959L50.9949 7.02003ZM58.7099 23.466C57.5229 23.466 56.4939 23.205 55.6229 22.682C54.7533 22.1607 54.0527 21.3996 53.6049 20.49C53.1309 19.551 52.8929 18.454 52.8929 17.198C52.8929 15.942 53.1299 14.842 53.6049 13.898C54.0799 12.954 54.7529 12.22 55.6229 11.698C56.4929 11.176 57.5229 10.914 58.7099 10.914C59.8919 10.914 60.9179 11.176 61.7879 11.698C62.6579 12.22 63.3319 12.954 63.8059 13.898C64.2859 14.842 64.5259 15.942 64.5259 17.198C64.5259 18.454 64.2859 19.551 63.8059 20.49C63.3583 21.4 62.6576 22.1615 61.7879 22.683C60.9179 23.205 59.8919 23.466 58.7099 23.466ZM58.7179 21.186C59.3719 21.186 59.9149 21.01 60.3479 20.656C60.7809 20.298 61.1049 19.818 61.3209 19.216C61.5379 18.609 61.6459 17.934 61.6459 17.19C61.6459 16.446 61.5379 15.771 61.3209 15.164C61.1049 14.557 60.7809 14.074 60.3479 13.716C59.9149 13.352 59.3719 13.17 58.7179 13.17C58.0579 13.17 57.5089 13.352 57.0719 13.716C56.6339 14.075 56.3069 14.557 56.0899 15.164C55.8799 15.771 55.7739 16.446 55.7739 17.19C55.7739 17.934 55.8789 18.61 56.0899 19.216C56.3069 19.818 56.6339 20.298 57.0719 20.656C57.5099 21.01 58.0579 21.186 58.7179 21.186ZM72.3299 11.074V13.274H65.3659V11.074H72.3299ZM67.0899 8.16003H69.9319V19.58C69.9319 19.965 69.9899 20.26 70.1059 20.467C70.2269 20.672 70.3859 20.812 70.5809 20.886C70.7759 20.96 70.9949 20.996 71.2379 20.996C71.4021 20.9974 71.566 20.9844 71.7279 20.957C71.8759 20.931 71.9919 20.907 72.0769 20.886L72.5509 23.11C72.338 23.1792 72.1217 23.2372 71.9029 23.284C71.6229 23.347 71.2799 23.384 70.8729 23.394C70.1609 23.416 69.5179 23.308 68.9429 23.07C68.3891 22.8404 67.9156 22.4521 67.5819 21.954C67.2489 21.448 67.0859 20.812 67.0909 20.047V8.16003H67.0899ZM74.0729 23.229V11.073H76.9229V23.229H74.0729ZM75.5059 9.33903C75.0519 9.33903 74.6639 9.18903 74.3419 8.88903C74.1887 8.75138 74.0664 8.58278 73.9831 8.39437C73.8998 8.20595 73.8575 8.00202 73.8589 7.79603C73.8589 7.36903 74.0199 7.00503 74.3419 6.70403C74.654 6.40393 75.0719 6.239 75.5049 6.24503C75.9589 6.24503 76.3469 6.39803 76.6689 6.70503C76.9959 7.00503 77.1589 7.36903 77.1589 7.79603C77.1589 8.21803 76.9959 8.58203 76.6689 8.88803C76.3469 9.18903 75.9589 9.34003 75.5059 9.34003V9.33903ZM84.4959 23.466C83.3089 23.466 82.2799 23.205 81.4089 22.682C80.5393 22.1608 79.8386 21.3997 79.3909 20.49C78.9169 19.551 78.6789 18.454 78.6789 17.198C78.6789 15.942 78.9169 14.842 79.3909 13.898C79.8659 12.954 80.5389 12.22 81.4089 11.698C82.2799 11.176 83.3089 10.914 84.4959 10.914C85.6779 10.914 86.7039 11.176 87.5739 11.698C88.4449 12.22 89.1179 12.954 89.5929 13.898C90.0729 14.842 90.3129 15.942 90.3129 17.198C90.3129 18.454 90.0729 19.551 89.5929 20.49C89.1451 21.4002 88.444 22.1617 87.5739 22.683C86.7039 23.205 85.6779 23.466 84.4959 23.466ZM84.5039 21.186C85.1579 21.186 85.7009 21.01 86.1339 20.656C86.5669 20.298 86.8909 19.818 87.1079 19.216C87.3239 18.609 87.4319 17.934 87.4319 17.19C87.4319 16.446 87.3239 15.771 87.1079 15.164C86.8909 14.557 86.5669 14.074 86.1339 13.716C85.7009 13.352 85.1579 13.17 84.5039 13.17C83.8439 13.17 83.2959 13.352 82.8579 13.716C82.4199 14.075 82.0929 14.557 81.8759 15.164C81.6659 15.771 81.5599 16.446 81.5599 17.19C81.5599 17.934 81.6649 18.61 81.8759 19.216C82.0929 19.818 82.4199 20.298 82.8579 20.656C83.2959 21.01 83.8439 21.186 84.5039 21.186ZM94.9099 16.098V23.228H92.0619V11.074H94.7839V13.131H94.9269C95.1961 12.4684 95.663 11.9049 96.2639 11.517C96.8809 11.116 97.6439 10.915 98.5519 10.915C99.3849 10.915 100.113 11.095 100.736 11.454C101.366 11.8162 101.874 12.3593 102.192 13.013C102.54 13.693 102.714 14.519 102.714 15.49V23.23H99.8739V15.925C99.8739 15.112 99.6619 14.477 99.2399 14.018C98.8169 13.554 98.2339 13.321 97.4899 13.321C96.9899 13.321 96.5439 13.432 96.1529 13.654C95.7629 13.87 95.4569 14.186 95.2349 14.604C95.0189 15.014 94.9099 15.514 94.9099 16.099V16.098Z" fill="white"/>
</g>
</svg>
